<svg width="79" height="48" viewBox="0 0 79 48" fill="none" xmlns="http://www.w3.org/2000/svg">
<path d="M10.2277 0V3.11647C9.36829 3.11647 8.69778 3.23924 8.21614 3.48478C7.7345 3.72087 7.52674 4.19778 7.59285 4.91552L8.03199 9.09441C8.14531 10.1521 8.02726 11.0068 7.67784 11.6584C7.33786 12.31 6.81373 12.8106 6.10544 13.16C5.4066 13.5 4.58026 13.7408 3.62643 13.8824C4.63692 14.0335 5.49159 14.2791 6.19044 14.6191C6.88928 14.959 7.39925 15.4501 7.72034 16.0923C8.04143 16.7345 8.14531 17.5939 8.03199 18.6705L7.59285 22.8494C7.52674 23.5671 7.7345 24.044 8.21614 24.2801C8.69778 24.5256 9.36829 24.6484 10.2277 24.6484V27.7649C7.62118 27.7649 5.78907 27.3682 4.73136 26.575C3.6831 25.7911 3.25812 24.4454 3.45644 22.5377L3.88142 18.4863C3.95697 17.7686 3.8342 17.2067 3.51311 16.8006C3.20146 16.3945 2.73871 16.1112 2.12486 15.9506C1.51101 15.7807 0.802726 15.6957 0 15.6957V12.0692C0.793282 12.0692 1.49685 11.9889 2.1107 11.8284C2.72455 11.6584 3.19202 11.3704 3.51311 10.9643C3.8342 10.5582 3.95697 9.9963 3.88142 9.27857L3.45644 5.25549C3.24868 3.31006 3.67365 1.95015 4.73136 1.17576C5.78907 0.391919 7.62118 0 10.2277 0Z" fill="url(#paint0_linear_3_20)"/>
<path d="M22.5052 3.66893C24.8473 3.66893 26.6133 4.57554 27.8032 6.38875C29.0026 8.19253 29.6023 10.7093 29.6023 13.9391C29.6023 17.1783 29.0026 19.714 27.8032 21.5461C26.6133 23.3688 24.8473 24.2801 22.5052 24.2801C20.1443 24.2801 18.3688 23.3688 17.1789 21.5461C15.9984 19.714 15.4082 17.1783 15.4082 13.9391C15.4082 10.7093 15.9984 8.19253 17.1789 6.38875C18.3688 4.57554 20.1443 3.66893 22.5052 3.66893ZM22.5052 6.91289C21.5042 6.91289 20.7723 7.45119 20.3095 8.52778C19.8468 9.59494 19.6154 11.3987 19.6154 13.9391C19.6154 14.7702 19.6296 15.5115 19.6579 16.1631C19.6863 16.8053 19.7288 17.3767 19.7854 17.8772L24.5734 7.86199C24.3468 7.50313 24.0635 7.25759 23.7235 7.12537C23.393 6.98372 22.9869 6.91289 22.5052 6.91289ZM25.3667 13.9391C25.3667 12.8531 25.3431 11.937 25.2959 11.1909L20.777 20.5262C20.9848 20.7245 21.2303 20.8614 21.5136 20.937C21.8064 21.0125 22.1369 21.0503 22.5052 21.0503C23.1758 21.0503 23.7188 20.8237 24.1343 20.3704C24.5593 19.9171 24.8709 19.171 25.0692 18.1322C25.2676 17.0839 25.3667 15.6862 25.3667 13.9391Z" fill="url(#paint1_linear_3_20)"/>
<path d="M39.5 3.66893C41.8421 3.66893 43.6081 4.57554 44.798 6.38875C45.9974 8.19253 46.597 10.7093 46.597 13.9391C46.597 17.1783 45.9974 19.714 44.798 21.5461C43.6081 23.3688 41.8421 24.2801 39.5 24.2801C37.139 24.2801 35.3636 23.3688 34.1737 21.5461C32.9932 19.714 32.403 17.1783 32.403 13.9391C32.403 10.7093 32.9932 8.19253 34.1737 6.38875C35.3636 4.57554 37.139 3.66893 39.5 3.66893ZM39.5 6.91289C38.499 6.91289 37.7671 7.45119 37.3043 8.52778C36.8416 9.59494 36.6102 11.3987 36.6102 13.9391C36.6102 14.7702 36.6244 15.5115 36.6527 16.1631C36.681 16.8053 36.7235 17.3767 36.7802 17.8772L41.5682 7.86199C41.3415 7.50313 41.0582 7.25759 40.7183 7.12537C40.3877 6.98372 39.9816 6.91289 39.5 6.91289ZM42.3615 13.9391C42.3615 12.8531 42.3379 11.937 42.2907 11.1909L37.7718 20.5262C37.9795 20.7245 38.2251 20.8614 38.5084 20.937C38.8012 21.0125 39.1317 21.0503 39.5 21.0503C40.1705 21.0503 40.7135 20.8237 41.1291 20.3704C41.554 19.9171 41.8657 19.171 42.064 18.1322C42.2623 17.0839 42.3615 15.6862 42.3615 13.9391Z" fill="url(#paint2_linear_3_20)"/>
<path d="M55.4748 24.2518L51.2251 22.9344L58.5488 7.53618H49.9218V4.16473H63.0818V7.1962L55.4748 24.2518Z" fill="url(#paint3_linear_3_20)"/>
<path d="M68.7723 0C71.3788 0 73.2062 0.391919 74.2545 1.17576C75.3122 1.9596 75.7419 3.31006 75.5436 5.22716L75.1186 9.27857C75.043 9.9963 75.1658 10.5582 75.4869 10.9643C75.808 11.3704 76.2707 11.6584 76.8751 11.8284C77.489 11.9889 78.1973 12.0692 79 12.0692V15.6957C78.2067 15.6957 77.5032 15.7807 76.8893 15.9506C76.2755 16.1112 75.808 16.3945 75.4869 16.8006C75.1658 17.2067 75.043 17.7686 75.1186 18.4863L75.5436 22.5094C75.7608 24.4454 75.3358 25.8053 74.2686 26.5891C73.2109 27.373 71.3788 27.7649 68.7723 27.7649V24.6484C69.6412 24.6484 70.3164 24.5256 70.798 24.2801C71.2797 24.044 71.4827 23.5671 71.4072 22.8494L70.968 18.6705C70.8547 17.6033 70.968 16.7486 71.308 16.1065C71.6574 15.4548 72.1863 14.959 72.8946 14.6191C73.6028 14.2696 74.4339 14.0241 75.3877 13.8824C74.3772 13.7313 73.5179 13.4858 72.8096 13.1458C72.1107 12.8058 71.6008 12.3148 71.2797 11.6726C70.9586 11.021 70.8547 10.1616 70.968 9.09441L71.4072 4.91552C71.4827 4.19778 71.2749 3.72087 70.7839 3.48478C70.3022 3.23924 69.6317 3.11647 68.7723 3.11647V0Z" fill="url(#paint4_linear_3_20)"/>
<defs>
<linearGradient id="paint0_linear_3_20" x1="-1.66963" y1="29.9023" x2="81.4006" y2="0.496942" gradientUnits="userSpaceOnUse">
<stop stop-color="#00C0FD"/>
<stop offset="1" stop-color="#E70FAA"/>
</linearGradient>
<linearGradient id="paint1_linear_3_20" x1="-1.66963" y1="29.9023" x2="81.4006" y2="0.496942" gradientUnits="userSpaceOnUse">
<stop stop-color="#00C0FD"/>
<stop offset="1" stop-color="#E70FAA"/>
</linearGradient>
<linearGradient id="paint2_linear_3_20" x1="-1.66963" y1="29.9023" x2="81.4006" y2="0.496942" gradientUnits="userSpaceOnUse">
<stop stop-color="#00C0FD"/>
<stop offset="1" stop-color="#E70FAA"/>
</linearGradient>
<linearGradient id="paint3_linear_3_20" x1="-1.66963" y1="29.9023" x2="81.4006" y2="0.496942" gradientUnits="userSpaceOnUse">
<stop stop-color="#00C0FD"/>
<stop offset="1" stop-color="#E70FAA"/>
</linearGradient>
<linearGradient id="paint4_linear_3_20" x1="-1.66963" y1="29.9023" x2="81.4006" y2="0.496942" gradientUnits="userSpaceOnUse">
<stop stop-color="#00C0FD"/>
<stop offset="1" stop-color="#E70FAA"/>
</linearGradient>
<linearGradient id="paint5_linear_3_20" x1="-0.199074" y1="48.281" x2="76.2549" y2="32.108" gradientUnits="userSpaceOnUse">
<stop stop-color="#13B0F5"/>
<stop offset="1" stop-color="#CA24B4"/>
</linearGradient>
<linearGradient id="paint6_linear_3_20" x1="-0.199074" y1="48.281" x2="76.2549" y2="32.108" gradientUnits="userSpaceOnUse">
<stop stop-color="#13B0F5"/>
<stop offset="1" stop-color="#CA24B4"/>
</linearGradient>
<linearGradient id="paint7_linear_3_20" x1="-0.199074" y1="48.281" x2="76.2549" y2="32.108" gradientUnits="userSpaceOnUse">
<stop stop-color="#13B0F5"/>
<stop offset="1" stop-color="#CA24B4"/>
</linearGradient>
<linearGradient id="paint8_linear_3_20" x1="-0.199074" y1="48.281" x2="76.2549" y2="32.108" gradientUnits="userSpaceOnUse">
<stop stop-color="#13B0F5"/>
<stop offset="1" stop-color="#CA24B4"/>
</linearGradient>
<linearGradient id="paint9_linear_3_20" x1="-0.199074" y1="48.281" x2="76.2549" y2="32.108" gradientUnits="userSpaceOnUse">
<stop stop-color="#13B0F5"/>
<stop offset="1" stop-color="#CA24B4"/>
</linearGradient>
<linearGradient id="paint10_linear_3_20" x1="-0.199074" y1="48.281" x2="76.2549" y2="32.108" gradientUnits="userSpaceOnUse">
<stop stop-color="#13B0F5"/>
<stop offset="1" stop-color="#CA24B4"/>
</linearGradient>
<linearGradient id="paint11_linear_3_20" x1="-0.199074" y1="48.281" x2="76.2549" y2="32.108" gradientUnits="userSpaceOnUse">
<stop stop-color="#13B0F5"/>
<stop offset="1" stop-color="#CA24B4"/>
</linearGradient>
</defs>
</svg>
